REM DIRINDEX 1\2,1\4,1\5,1\6,1\7,1\3\8,1\3\9,1\3\10
REM DIRNAME folder01,folder02,folder03,folder04,folder05,folder06,folder07,folder08,folder09,folder10
TITLE ""
FILE "DB4500_5th_3B_21.mp3" MP3
  TRACK 01 AUDIO
    TITLE "0:"
    INDEX 01 00:00:00
  TRACK 02 AUDIO
    TITLE "8:cjc113_2553"
    INDEX 01 00:00:01
  TRACK 03 AUDIO
    TITLE "0:"
    INDEX 01 00:01:09
  TRACK 04 AUDIO
    TITLE "9:cjc113_2554"
    INDEX 01 00:01:26
  TRACK 05 AUDIO
    TITLE "0:"
    INDEX 01 00:02:30
  TRACK 06 AUDIO
    TITLE "10:cjc113_2555"
    INDEX 01 00:02:49
  TRACK 07 AUDIO
    TITLE "0:"
    INDEX 01 00:06:39
  TRACK 08 AUDIO
    TITLE "8:cjc113_2556"
    INDEX 01 00:07:05
  TRACK 09 AUDIO
    TITLE "0:"
    INDEX 01 00:08:11
  TRACK 10 AUDIO
    TITLE "9:cjc113_2557"
    INDEX 01 00:08:32
  TRACK 11 AUDIO
    TITLE "0:"
    INDEX 01 00:09:36
  TRACK 12 AUDIO
    TITLE "10:cjc113_2558"
    INDEX 01 00:09:53
  TRACK 13 AUDIO
    TITLE "0:"
    INDEX 01 00:13:69
  TRACK 14 AUDIO
    TITLE "8:cjc113_2559"
    INDEX 01 00:14:35
  TRACK 15 AUDIO
    TITLE "0:"
    INDEX 01 00:15:56
  TRACK 16 AUDIO
    TITLE "9:cjc113_2560"
    INDEX 01 00:16:00
  TRACK 17 AUDIO
    TITLE "0:"
    INDEX 01 00:17:00
  TRACK 18 AUDIO
    TITLE "10:cjc113_2561"
    INDEX 01 00:17:20
  TRACK 19 AUDIO
    TITLE "0:"
    INDEX 01 00:21:47
  TRACK 20 AUDIO
    TITLE "8:cjc113_2562"
    INDEX 01 00:22:17
  TRACK 21 AUDIO
    TITLE "0:"
    INDEX 01 00:23:30
  TRACK 22 AUDIO
    TITLE "9:cjc113_2563"
    INDEX 01 00:23:50
  TRACK 23 AUDIO
    TITLE "0:"
    INDEX 01 00:24:51
  TRACK 24 AUDIO
    TITLE "10:cjc113_2564"
    INDEX 01 00:24:67
  TRACK 25 AUDIO
    TITLE "0:"
    INDEX 01 00:29:09
  TRACK 26 AUDIO
    TITLE "8:cjc113_2565"
    INDEX 01 00:29:52
  TRACK 27 AUDIO
    TITLE "0:"
    INDEX 01 00:30:69
  TRACK 28 AUDIO
    TITLE "9:cjc113_2566"
    INDEX 01 00:31:16
  TRACK 29 AUDIO
    TITLE "0:"
    INDEX 01 00:32:15
  TRACK 30 AUDIO
    TITLE "10:cjc113_2567"
    INDEX 01 00:32:35
  TRACK 31 AUDIO
    TITLE "0:"
    INDEX 01 00:36:72
  TRACK 32 AUDIO
    TITLE "8:cjc113_2568"
    INDEX 01 00:37:40
  TRACK 33 AUDIO
    TITLE "0:"
    INDEX 01 00:38:59
  TRACK 34 AUDIO
    TITLE "9:cjc113_2569"
    INDEX 01 00:39:03
  TRACK 35 AUDIO
    TITLE "0:"
    INDEX 01 00:40:15
  TRACK 36 AUDIO
    TITLE "10:cjc113_2570"
    INDEX 01 00:40:34
  TRACK 37 AUDIO
    TITLE "0:"
    INDEX 01 00:43:21
  TRACK 38 AUDIO
    TITLE "8:cjc113_2571"
    INDEX 01 00:43:64
  TRACK 39 AUDIO
    TITLE "0:"
    INDEX 01 00:45:12
  TRACK 40 AUDIO
    TITLE "9:cjc113_2572"
    INDEX 01 00:45:30
  TRACK 41 AUDIO
    TITLE "0:"
    INDEX 01 00:46:45
  TRACK 42 AUDIO
    TITLE "10:cjc113_2573"
    INDEX 01 00:46:62
  TRACK 43 AUDIO
    TITLE "0:"
    INDEX 01 00:50:54
  TRACK 44 AUDIO
    TITLE "8:cjc113_2574"
    INDEX 01 00:51:18
  TRACK 45 AUDIO
    TITLE "0:"
    INDEX 01 00:52:49
  TRACK 46 AUDIO
    TITLE "9:cjc113_2575"
    INDEX 01 00:52:67
  TRACK 47 AUDIO
    TITLE "0:"
    INDEX 01 00:53:72
  TRACK 48 AUDIO
    TITLE "10:cjc113_2576"
    INDEX 01 00:54:15
  TRACK 49 AUDIO
    TITLE "0:"
    INDEX 01 00:58:42
  TRACK 50 AUDIO
    TITLE "8:cjc113_2577"
    INDEX 01 00:59:08
  TRACK 51 AUDIO
    TITLE "0:"
    INDEX 01 01:00:15
  TRACK 52 AUDIO
    TITLE "9:cjc113_2578"
    INDEX 01 01:00:31
  TRACK 53 AUDIO
    TITLE "0:"
    INDEX 01 01:01:54
  TRACK 54 AUDIO
    TITLE "10:cjc113_2579"
    INDEX 01 01:02:01
  TRACK 55 AUDIO
    TITLE "0:"
    INDEX 01 01:05:38
  TRACK 56 AUDIO
    TITLE "8:cjc113_2580"
    INDEX 01 01:06:06
  TRACK 57 AUDIO
    TITLE "0:"
    INDEX 01 01:07:25
  TRACK 58 AUDIO
    TITLE "9:cjc113_2581"
    INDEX 01 01:07:43
  TRACK 59 AUDIO
    TITLE "0:"
    INDEX 01 01:08:48
  TRACK 60 AUDIO
    TITLE "10:cjc113_2582"
    INDEX 01 01:08:66
  TRACK 61 AUDIO
    TITLE "0:"
    INDEX 01 01:13:24
  TRACK 62 AUDIO
    TITLE "8:cjc113_2583"
    INDEX 01 01:13:65
  TRACK 63 AUDIO
    TITLE "0:"
    INDEX 01 01:15:03
  TRACK 64 AUDIO
    TITLE "9:cjc113_2584"
    INDEX 01 01:15:21
  TRACK 65 AUDIO
    TITLE "0:"
    INDEX 01 01:16:18
  TRACK 66 AUDIO
    TITLE "10:cjc113_2585"
    INDEX 01 01:16:32
  TRACK 67 AUDIO
    TITLE "0:"
    INDEX 01 01:21:57
  TRACK 68 AUDIO
    TITLE "8:cjc113_2586"
    INDEX 01 01:22:27
  TRACK 69 AUDIO
    TITLE "0:"
    INDEX 01 01:23:42
  TRACK 70 AUDIO
    TITLE "9:cjc113_2587"
    INDEX 01 01:23:62
  TRACK 71 AUDIO
    TITLE "0:"
    INDEX 01 01:25:09
  TRACK 72 AUDIO
    TITLE "10:cjc113_2588"
    INDEX 01 01:25:27
  TRACK 73 AUDIO
    TITLE "0:"
    INDEX 01 01:29:56
  TRACK 74 AUDIO
    TITLE "8:cjc113_2589"
    INDEX 01 01:30:24
  TRACK 75 AUDIO
    TITLE "0:"
    INDEX 01 01:31:24
  TRACK 76 AUDIO
    TITLE "9:cjc113_2590"
    INDEX 01 01:31:43
  TRACK 77 AUDIO
    TITLE "0:"
    INDEX 01 01:32:64
  TRACK 78 AUDIO
    TITLE "10:cjc113_2591"
    INDEX 01 01:33:07
  TRACK 79 AUDIO
    TITLE "0:"
    INDEX 01 01:36:45
